<svg xmlns="http://www.w3.org/2000/svg" width="735" height="558" fill="none" viewBox="0 0 735 558">
  <path fill="#000" fill-rule="evenodd" d="m236.293 5.835 11.989-2.302 11.99-2.301 2.037-.116L264.347 1l2.977 5.25 2.978 5.25 6.974 14.326 6.975 14.326 3.497-.584 3.497-.585 6.633-.972 6.632-.972 21.343-1.511 21.342-1.511h39.965l21.482 1.497 21.481 1.497 6.994.983 6.993.983 3.579.615 3.58.615 2.288-5.353 2.288-5.354 6.449-13 6.449-13 1.279-1.321L471.3.858l11.883 2.127 11.883 2.126 12.988 3.026 12.989 3.026 10.491 2.982 10.49 2.982 18.484 6.031 18.484 6.03 10.99 4.348 10.991 4.347 10.48 4.558L621.931 47h.397l7.402 11.265 7.4 11.265 9.332 15.485 9.331 15.485 12.124 24 12.123 24 2.309 5.5 2.31 5.5 2.901 7 2.9 7 1.393 3 1.394 3 1.67 5 1.671 5 1.282 3 1.282 3 3.541 10.5 3.541 10.5 3.058 10 3.057 10 2.594 10 2.594 10 3.478 16 3.479 16 2.452 16 2.451 16 .994 7.5.993 7.5 1.482 23 1.482 23-.001 19v19l-.976 16.5-.975 16.5-.597 6-.596 6-3.669 2.556-3.669 2.556-9.492 6.515-9.491 6.515-11.99 7.574-11.989 7.575-12.006 6.855-12.004 6.854-15.472 7.696-15.47 7.697-9.991 4.43-9.992 4.431-13.987 5.52-13.988 5.52-15.272 5.103-15.27 5.103h-2.544l-3.39-4.75-3.391-4.75-7.043-10.658-7.043-10.658-1.932-3.342-1.932-3.342-4.313-7.421-4.312-7.42v-.699l-2.422-3.839-2.422-3.84-.325-1.734-.326-1.734 5.995-2.307 5.995-2.308 7.493-3.135 7.493-3.135 16.923-8.775 16.922-8.776.253-.938.253-.939-6.95-5.313-6.95-5.312-2.232.7-2.233.701-4.995 2.255-4.996 2.256-8.54 3.518-8.542 3.518-15.437 5.173-15.439 5.173-14.644 3.86-14.644 3.86-16.828 3.008-16.829 3.009-8.492 1.01-8.493 1.01-18.983 1.172-18.983 1.172-16.486-.642-16.485-.641-15.986-1.451-15.986-1.452-16.695-3.047-16.694-3.046-15.588-4.027-15.588-4.028-15.024-5.021-15.022-5.022-12.143-5.061-12.142-5.06-3.718-1.527-3.719-1.526-3.635 2.891-3.637 2.89-3.136 2.269-3.137 2.27v2.13l10.991 5.99 10.99 5.991 9.492 4.329 9.491 4.329 5.578 2.505 5.576 2.506 4.165 1.249 4.164 1.249v2.02l-6.886 12.582-6.886 12.581-4.368 7-4.368 7-7.095 10.516-7.094 10.515-1.613 1.34-1.614 1.34-12.259-3.991-12.26-3.99-13.488-5.084-13.488-5.084-8.493-3.575-8.493-3.575-3.996-1.675-3.997-1.675-12.811-6.292-12.813-6.292-12.165-6.643-12.167-6.643-9.991-6.05-9.991-6.05-10.99-7.272-10.99-7.273-2.394-1.773-2.393-1.774-2.216-1.5-2.217-1.5-3.539-2.473-3.539-2.473-.58-3.527-.58-3.527-1.13-15.764-1.13-15.765.506-36.235.505-36.236 2.627-22 2.626-22 1.428-8 1.427-8 2.048-11 2.048-11 3.934-15.5 3.936-15.5 2.036-7.329 2.037-7.329 4.006-12.171 4.006-12.171 2.574-7 2.574-7 3.382-8.5 3.383-8.5 3.428-8 3.429-8 2.68-6 2.68-6 6.657-13.5 6.656-13.5 11.404-20 11.404-20 5.502-8.5 5.502-8.5 3.485-5.299 3.486-5.299 4.785-2.427 4.785-2.427 15.817-6.409 15.817-6.41 16.486-5.526 16.486-5.526 10.99-3.216 10.99-3.216 13.988-3.455 13.988-3.455Zm95.598 70.649.501-2.242.502-2.242h69.959l.381 1.246.38 1.245 2.755 19.628 2.754 19.629 7.829 2.591 7.828 2.589 8.584 3.936 8.583 3.937 1.152-.707 1.152-.705 15.97-11.78 15.969-11.779 24.895 24.885 24.893 24.885-1.791 2.797-1.792 2.797-10.392 14.637-10.391 14.638 3.424 6.785 3.425 6.785 3.159 8.932 3.16 8.932.231.232.233.232 18.453 3.05 18.452 3.049 2.248.51 2.248.51v69.577l-1.748.53-1.749.529-18.482 3.081-18.483 3.08-.591.692-.592.692-2.773 7.971-2.772 7.971-3.446 6.832-3.445 6.832.486 1.262.485 1.262 11.704 16.795 11.705 16.794-25.205 24.728-25.205 24.728-1.155-.875-1.156-.876-16.173-11.667-16.173-11.668-6.861 3.445-6.861 3.446-9.112 3.173-9.113 3.174-1.087 6.627-1.087 6.626-2.307 13.95-2.309 13.95-35.12.262-35.119.262-.517-2.255-.516-2.255-2.059-14.217-2.058-14.216-.695-4.023-.694-4.022-7.144-2.399-7.143-2.398-8.651-4.099-8.651-4.1-2.689 1.751-2.687 1.751-13.987 9.937-13.987 9.937-1.498.381-1.499.38-24.386-24.365-24.387-24.365 12.574-17.532 12.573-17.533-4.284-9.204-4.284-9.205-2.194-6.66-2.196-6.659-2.688-.551-2.688-.551-15.985-2.56-15.985-2.56-2.248-.551-2.248-.551v-70.105l20.444-3.335 20.442-3.335 2.699-8.086 2.697-8.087 3.818-8.285 3.816-8.284-12.532-17.555-12.532-17.554 24.725-24.675 24.724-24.674 1.128.693 1.128.692 16.615 11.749 16.615 11.749 5.797-2.907 5.798-2.907 9.99-3.71 9.991-3.712.153-.148.152-.15 3.111-18.433 3.112-18.434Zm57.412 115.263-7.701-1.583-7.701-1.583-6.785.093-6.786.094-6.494 1.321-6.494 1.322-7.346 3.054-7.346 3.055-6.141 4.378-6.141 4.377-5.04 5.352-5.04 5.352-3.619 5.978-3.621 5.978-2.17 5.481-2.171 5.48-1.408 7.312-1.408 7.311v11.607l1.441 7.517 1.443 7.517 2.943 6.987 2.944 6.987 4.514 6.259 4.515 6.259 4.337 4.137 4.338 4.138 5.882 4.064 5.883 4.063 7.605 2.91 7.604 2.909 7.773 1.238 7.773 1.237 7.213-.547 7.213-.546 6.494-1.673 6.494-1.674 7.341-3.65 7.342-3.652 6.282-5.16 6.282-5.159 4.579-5.936 4.58-5.935 3.379-6.841 3.379-6.84 1.865-6.477 1.864-6.477-.007-10.96-.007-10.961-1.841-6.975-1.842-6.975-3.822-7.615-3.821-7.615-5.588-6.569-5.588-6.569-6.354-4.522-6.353-4.522-7.334-3.375-7.333-3.376Z" clip-rule="evenodd"/>
</svg>
